<svg width="47" height="19" viewBox="0 0 47 19" fill="none" xmlns="http://www.w3.org/2000/svg">
<path d="M45.5763 0.824585C45.1992 0.824585 44.8376 0.974376 44.571 1.24101C44.3043 1.50764 44.1545 1.86926 44.1545 2.24633C44.1545 2.62341 44.3043 2.98503 44.571 3.25166C44.8376 3.51829 45.1992 3.66809 45.5763 3.66809C45.9534 3.66809 46.315 3.51829 46.5816 3.25166C46.8483 2.98503 46.998 2.62341 46.998 2.24633C46.998 1.86926 46.8483 1.50764 46.5816 1.24101C46.315 0.974376 45.9534 0.824585 45.5763 0.824585ZM45.5763 1.03608C46.2421 1.03608 46.7905 1.58442 46.7905 2.24829C46.7901 2.48788 46.7187 2.72198 46.5854 2.92102C46.452 3.12007 46.2627 3.27514 46.0412 3.36664C45.8198 3.45815 45.5762 3.48199 45.3413 3.43515C45.1063 3.38832 44.8905 3.27291 44.7211 3.10349C44.5517 2.93408 44.4363 2.71827 44.3894 2.4833C44.3426 2.24834 44.3664 2.00477 44.4579 1.78335C44.5494 1.56193 44.7045 1.37258 44.9036 1.23924C45.1026 1.10589 45.3367 1.03451 45.5763 1.03413V1.03608ZM15.935 1.14183C14.1725 1.14183 12.8995 2.30117 12.7253 4.35546H11.3642V5.37771H12.7057C12.7115 8.64029 12.7018 11.9068 12.7018 15.1655H14.2253C14.2195 11.9029 14.2214 8.64029 14.2214 5.37771H17.6446C16.3795 6.40388 15.555 8.0665 15.555 9.94846C15.555 13.0681 17.8208 15.5963 20.6115 15.5963C23.404 15.5963 25.6679 13.0681 25.6679 9.94846C25.6679 9.57638 25.6346 9.21213 25.5739 8.86158C26.0752 9.67038 27.0387 10.062 28.3312 10.6202C29.8548 11.2664 30.7067 11.8285 30.7067 12.79C30.7067 13.9415 29.6178 14.5427 28.3919 14.5329C27.1954 14.5329 26.2613 14.0453 25.2194 13.1033V14.9128C25.8559 15.3221 26.839 15.5552 27.9023 15.5552C29.2418 15.5493 31.9992 15.0656 31.9992 12.273C31.9894 10.5967 30.599 9.876 29.0891 9.21996C27.2502 8.30934 26.5491 8.11742 26.5667 7.07559C26.5667 5.68517 27.777 5.27 28.7209 5.27C29.1322 5.27 29.4847 5.32875 29.8156 5.43842C30.4345 5.67342 30.6381 6.13363 30.8594 6.63496C31.8934 9.05546 32.8843 11.4936 33.8929 13.9258C33.4514 14.9349 32.9832 15.932 32.4888 16.9162L32.4809 16.9358L32.1676 17.5174L31.8151 18.1754H33.3073C33.9575 16.738 36.7207 10.0111 37.316 8.56196C37.7077 9.60575 38.6575 10.0248 40.1165 10.6554C41.64 11.2997 42.4939 11.8618 42.4939 12.8233C42.4939 13.9768 41.405 14.574 40.1811 14.5643C38.9375 14.5643 37.976 14.0375 36.8872 13.023L36.7892 12.9428V14.7855C37.3963 15.2947 38.493 15.5885 39.6915 15.5885C41.031 15.5845 43.7864 15.1008 43.7864 12.3083C43.7785 10.6319 42.3862 9.90733 40.8763 9.25325C39.0394 8.34067 38.4088 8.14875 38.4284 7.10496C38.4284 5.7165 39.5623 5.29938 40.5042 5.29938C41.5793 5.29938 42.2589 5.69888 43.2067 6.38625V4.76867C42.4759 4.50397 41.7023 4.37779 40.9253 4.39658C39.1823 4.39463 37.6039 5.03108 37.2044 6.50571L35.0405 11.8598L34.8133 12.5335L34.6155 11.8598C33.6324 9.49217 32.6689 7.11279 31.7054 4.75104C31.0866 4.58654 30.078 4.35546 29.3672 4.36721H29.142C27.1249 4.36329 25.1783 5.21517 25.1783 7.2205C25.1783 7.338 25.1842 7.44571 25.19 7.55342C24.3832 5.63229 22.6383 4.30258 20.6115 4.30258C20.3709 4.3014 20.1306 4.31908 19.8927 4.35546H14.2058C13.9708 2.92 14.6425 2.10338 15.651 2.10338C16.918 2.10338 17.4605 2.47938 18.0108 2.98463H18.0656C18.0715 2.50484 18.0695 1.94475 18.0695 1.42971C17.7073 1.26129 17.0786 1.14183 15.935 1.14183ZM0 1.18883V15.1655H1.68417V1.18883H0ZM45.0417 1.46104V2.95917H45.3139V2.356H45.635L45.8681 2.95917H46.1697L45.8955 2.31292C45.9915 2.26396 46.154 2.21108 46.154 1.94671C46.154 1.51 45.827 1.46104 45.543 1.46104H45.0417ZM45.3139 1.71954H45.6155C45.778 1.71954 45.8681 1.78613 45.8681 1.91929C45.8681 2.05246 45.7663 2.11513 45.639 2.11513H45.3139V1.71954ZM8.17017 4.32217C6.31954 4.32217 5.54012 4.97821 4.92325 5.64013C4.89416 5.67888 4.87105 5.72179 4.85471 5.76742H4.83708V5.68321L4.8175 4.46317H3.34092V15.1655H4.85862V7.338C4.90367 6.37842 6.25688 5.43058 7.31046 5.43058C8.57946 5.43058 9.61737 6.28442 9.61737 7.46529V15.1655H11.1351L11.1312 6.76813C11.0861 5.82225 9.93854 4.32021 8.16821 4.32021L8.17017 4.32217ZM20.4744 5.411C22.3818 5.37771 23.9661 7.41046 24.0092 9.95042C24.0523 12.4904 22.5404 14.576 20.631 14.6113C18.7236 14.6426 17.1413 12.6138 17.0982 10.0738C17.0532 7.53384 18.567 5.44625 20.4744 5.41296V5.411Z" fill="#0075CA"/>
</svg>
